<svg width="19" height="19" viewBox="0 0 19 19" fill="none" xmlns="http://www.w3.org/2000/svg">
<path d="M0.666504 18.3333C0.666504 14.6514 3.65127 11.6667 7.33317 11.6667C11.0151 11.6667 13.9998 14.6514 13.9998 18.3333H0.666504ZM7.33317 10.8333C4.57067 10.8333 2.33317 8.59583 2.33317 5.83333C2.33317 3.07083 4.57067 0.833334 7.33317 0.833334C10.0957 0.833334 12.3332 3.07083 12.3332 5.83333C12.3332 8.59583 10.0957 10.8333 7.33317 10.8333ZM13.4688 12.6943C16.04 13.3514 17.9731 15.6029 18.1528 18.3333H15.6665C15.6665 16.1585 14.8333 14.1783 13.4688 12.6943ZM11.7833 10.7974C13.1438 9.57683 13.9998 7.80506 13.9998 5.83333C13.9998 4.65222 13.6927 3.54284 13.1539 2.58073C15.0626 2.96164 16.4998 4.64554 16.4998 6.66667C16.4998 8.96875 14.6353 10.8333 12.3332 10.8333C12.1468 10.8333 11.9632 10.8211 11.7833 10.7974Z" fill="#999999"/>
</svg>
